<?xml version="1.0" encoding="UTF-8"?>
<svg width="342.550048px" height="312.7px" viewBox="0 0 342.550048 312.7" version="1.1" xmlns="http://www.w3.org/2000/svg" xmlns:xlink="http://www.w3.org/1999/xlink">
    <title>编组</title>
    <defs>
        <linearGradient x1="33.9281554%" y1="106.628775%" x2="68.5520676%" y2="-15.3658053%" id="linearGradient-1">
            <stop stop-color="#30E0DF" offset="13%"></stop>
            <stop stop-color="#2380F2" offset="91%"></stop>
        </linearGradient>
        <linearGradient x1="-18.5086042%" y1="80.8592104%" x2="70.6768642%" y2="42.6200451%" id="linearGradient-2">
            <stop stop-color="#2380F2" offset="0%"></stop>
            <stop stop-color="#2383F1" stop-opacity="0.97" offset="9%"></stop>
            <stop stop-color="#248AF0" stop-opacity="0.9" offset="22%"></stop>
            <stop stop-color="#2696EE" stop-opacity="0.77" offset="37%"></stop>
            <stop stop-color="#28A7EA" stop-opacity="0.6" offset="54%"></stop>
            <stop stop-color="#2BBCE6" stop-opacity="0.37" offset="72%"></stop>
            <stop stop-color="#2FD6E1" stop-opacity="0.11" offset="91%"></stop>
            <stop stop-color="#30E0DF" stop-opacity="0" offset="98%"></stop>
        </linearGradient>
        <linearGradient x1="50%" y1="-12.5%" x2="50%" y2="114.34244%" id="linearGradient-3">
            <stop stop-color="#30E0DF" offset="18%"></stop>
            <stop stop-color="#2380F2" offset="76%"></stop>
        </linearGradient>
    </defs>
    <g id="页面-1" stroke="none" stroke-width="1" fill="none" fill-rule="evenodd">
        <g id="编组" transform="translate(0, 0)" fill-rule="nonzero">
            <path d="M61.800024,262.11 C61.800024,262.95 61.800024,264.62 61.710024,267.11 C61.7224798,268.743359 61.6054466,270.375136 61.360024,271.99 C59.8533573,279.69 56.520024,285.373333 51.360024,289.04 C46.200024,292.706667 39.6333573,294.556667 31.660024,294.59 C26.0611032,294.690707 20.5110953,293.532177 15.420024,291.2 C10.6408166,288.922516 6.6983606,285.200446 4.15002398,280.56 C1.37669065,275.72 -0.00664268585,269.57 0,262.11 C0.00669064748,254.65 1.39002398,248.496667 4.15002398,243.65 C6.69505006,239.002116 10.6378523,235.272722 15.420024,232.99 C20.5110953,230.657823 26.0611032,229.499293 31.660024,229.6 C39.9416981,229.622849 47.8580291,233.012469 53.590024,238.99 C56.4481847,241.94582 58.5778831,245.527274 59.810024,249.45 L47.270024,249.45 C45.9369989,246.65479 43.8214461,244.306492 41.180024,242.69 C38.3557738,240.830658 35.0412027,239.855785 31.660024,239.89 C28.1680477,239.835654 24.7219531,240.690285 21.660024,242.37 C18.6364468,244.100318 16.1988523,246.694616 14.660024,249.82 C12.8283604,253.643564 11.9467252,257.852772 12.090024,262.09 C11.9528261,266.339561 12.8340051,270.560306 14.660024,274.4 C16.1791899,277.536405 18.621933,280.132692 21.660024,281.84 C24.7288565,283.497696 28.1725706,284.337963 31.660024,284.28 C35.5735748,284.363441 39.4234984,283.280868 42.720024,281.17 C45.9374947,279.000609 48.2606793,275.739625 49.260024,271.99 L31.660024,271.99 L31.660024,262.07 L61.800024,262.11 Z" id="路径" fill="#333333"></path>
            <path d="M91.360024,258.49 C88.5956793,259.188818 86.0315653,260.520514 83.870024,262.38 C81.590024,264.3 80.4466906,267.3 80.440024,271.38 L80.440024,294.59 L69.020024,294.59 L69.020024,270.99 C68.9849436,267.056732 70.0220782,263.18822 72.020024,259.8 C73.9888675,256.417705 76.800143,253.602984 80.180024,251.63 C83.5702036,249.636727 87.4373972,248.599946 91.370024,248.63 L91.360024,258.49 Z" id="路径" fill="#333333"></path>
            <path d="M342.530024,258.49 C339.765679,259.188818 337.201565,260.520514 335.040024,262.38 C332.760024,264.3 331.616691,267.3 331.610024,271.38 L331.610024,294.59 L320.160024,294.59 L320.160024,270.99 C320.124944,267.056732 321.162078,263.18822 323.160024,259.8 C325.134464,256.39802 327.960452,253.568585 331.360024,251.59 C334.750204,249.596727 338.617397,248.559946 342.550024,248.59 L342.530024,258.49 Z" id="路径" fill="#333333"></path>
            <path d="M128.930024,251.68 C131.357489,253.1288 133.385337,255.160085 134.830024,257.59 C136.30223,260.044385 137.067081,262.858066 137.040024,265.72 L137.040024,294.590106 L109.710024,294.590106 C107.121132,294.599935 104.57784,293.908823 102.350024,292.59 C100.125953,291.297636 98.2782398,289.446476 96.990024,287.22 C95.6654699,284.998268 94.9738475,282.456556 94.9896786,279.87 C94.9719447,277.295799 95.6639692,274.766449 96.990024,272.56 C99.64833,268.066573 104.489197,265.318848 109.710024,265.34 L125.710024,265.34 C125.735366,263.669602 125.082273,262.060322 123.900024,260.88 C122.779539,259.684046 121.208774,259.012933 119.570024,259.03 L103.660024,259.03 L103.660024,249.459642 L120.800024,249.459642 C123.662306,249.44062 126.474815,250.208612 128.930024,251.68 L128.930024,251.68 Z M125.680024,284.68 L125.680024,273.99 L111.680024,273.99 C110.23495,273.938069 108.83816,274.51429 107.850024,275.57 C106.868318,276.604641 106.333102,277.98399 106.360024,279.41 C106.35677,280.783244 106.908532,282.09954 107.890024,283.06 C108.847711,284.081521 110.189861,284.654656 111.590024,284.64 L125.680024,284.68 Z" id="形状" fill="#333333"></path>
            <path d="M184.820024,254.71 C188.700024,258.19 190.640024,263.523333 190.640024,270.71 C190.640024,277.896667 188.700024,283.23 184.820024,286.71 C180.940024,290.21 175.900024,291.956667 169.700024,291.95 L159.240024,291.95 L159.240024,312.7 L147.870024,312.7 L147.870024,249.47 L169.700024,249.47 C175.900024,249.47 180.940024,251.216667 184.820024,254.71 Z M169.700024,281.99 C171.316541,281.976488 172.896682,281.508683 174.260024,280.64 C175.7842,279.687329 177.02957,278.348814 177.870024,276.76 C179.7368,272.946182 179.7368,268.483818 177.870024,264.67 C177.026863,263.083112 175.782083,261.745233 174.260024,260.79 C172.896682,259.921317 171.316541,259.453512 169.700024,259.44 L159.240024,259.44 L159.240024,281.99 L169.700024,281.99 Z" id="形状" fill="#333333"></path>
            <path d="M211.020024,252.18 L222.020024,252.18 C224.667422,252.156951 227.272097,252.847846 229.560024,254.18 C231.841902,255.501963 233.738061,257.398122 235.060024,259.68 C236.392178,261.967927 237.083073,264.572602 237.060024,267.22 L237.060024,294.59 L225.730024,294.59 L225.730024,269.41 C225.746216,267.467263 224.980933,265.599533 223.606223,264.226703 C222.231513,262.853874 220.362737,262.091149 218.420024,262.11 L211.020024,262.11 L211.020024,294.59 L199.660024,294.59 L199.660024,231.43 L211.020024,231.43 L211.020024,252.18 Z" id="路径" fill="#333333"></path>
            <polygon id="路径" fill="#333333" points="297.330024 294.85 278.180024 246.49 258.760024 294.85 245.400024 294.85 271.930024 230.8 284.800024 230.8 310.730024 294.85"></polygon>
            <rect id="矩形" fill="#333333" x="258.750024" y="265.35" width="35.9" height="8.71"></rect>
            <polygon id="路径" fill="#2380F2" points="77.910024 50.43 77.910024 151.31 165.270024 201.74 165.270024 100.87"></polygon>
            <polygon id="路径" fill="#30E0DF" points="165.270024 0 77.910024 50.43 165.270024 100.87 252.630024 50.43"></polygon>
            <polygon id="路径" fill="url(#linearGradient-1)" points="165.270024 201.74 252.630024 151.31 252.630024 93.39 202.630024 122.44 202.630024 143.38 236.250024 123.72 236.250024 141.86 183.950024 172.05 183.860024 111.6 252.630024 71.96 252.630024 50.43 165.270024 100.87"></polygon>
            <polyline id="路径" fill="url(#linearGradient-2)" points="165.270024 0 121.880024 75.82 252.630024 50.43"></polyline>
            <polyline id="路径" fill="url(#linearGradient-3)" points="77.910024 151.31 121.880024 75.82 165.270024 201.74"></polyline>
        </g>
    </g>
</svg>